# xmcd
#
# Track frame offsets:
#	150
#	15831
#	34374
#	48965
#	67036
#	80127
#	94259
#	108529
#	124106
#	139107
#	155462
#	171975
#	191671
#	207602
#
# Disc length: 2964 seconds
#
# Revision: 1
# Processed by: cddbd v1.5.2PL0 Copyright (c) Steve Scherf et al.
# Submitted via: audiograbber 1.83.01
#
DISCID=ca0b920e
DTITLE=Various Artist - CDX Volume 595 (May 12, 2014)
DYEAR=2014
DGENRE=Country
TTITLE0=Eric Church - Cold One
TTITLE1=Blackhawk - Brothers Of The Southland
TTITLE2=Kacey Jones (featuring Waylon Payne) - Goin' Down Hill
TTITLE3=Mike Aiken - Put A Sail On It
TTITLE4=Sawyer Brown - Walk Out Of The Rain
TTITLE5=Mitch Goudy - Ain't My Fault
TTITLE6=Jordan Anderson - American Dream
TTITLE7=Ariana Hodes - Brand New Key 
TTITLE8=Crystal Day - Drown
TTITLE9=Steve Free - Ship Of Dreams 
TTITLE10=Kasey Lansdale - Sorry Ain't Enough
TTITLE11=Bryan Mayer - This Is Me
TTITLE12=Marianne Allison - Till It Breaks My Heart
TTITLE13=Mindy Miller - Wrong
EXTD=
EXTT0=
EXTT1=
EXTT2=
EXTT3=
EXTT4=
EXTT5=
EXTT6=
EXTT7=
EXTT8=
EXTT9=
EXTT10=
EXTT11=
EXTT12=
EXTT13=
PLAYORDER=
